<svg width="81" height="76" viewBox="0 0 81 76" fill="none" xmlns="http://www.w3.org/2000/svg">
<path d="M71.97 27.93C71.97 27.93 70.4399 24.99 70.32 24.52C70.2 24.05 70.5499 23.23 70.79 22.84C71.02 22.45 70.79 19.47 70.79 19.47C70.4799 17.03 69.01 15.07 68.07 14.04C68.3699 13.87 68.61 13.63 68.79 13.35C68.85 13.26 68.8099 13.12 68.7099 13.07C68.6099 13.01 68.5 13.05 68.43 13.15C68.41 13.18 68.38 13.22 68.36 13.25C68.36 13.25 68.3599 13.26 68.3499 13.27C68.3399 13.28 68.3199 13.3 68.3099 13.32C68.2499 13.38 68.1999 13.44 68.1399 13.49C68.1099 13.52 68.08 13.54 68.05 13.57C68.05 13.57 68.0399 13.58 68.0299 13.58C68.0199 13.58 67.9999 13.6 67.9899 13.61C67.9299 13.65 67.87 13.69 67.8 13.73C67.79 13.73 67.7799 13.75 67.7699 13.76C67.7399 13.73 67.6999 13.69 67.6699 13.66C67.8099 13.55 67.9 13.39 67.94 13.21C67.99 13 67.98 12.8 67.97 12.59C67.97 12.49 67.8799 12.38 67.7699 12.39C67.6699 12.39 67.5599 12.48 67.57 12.59C67.57 12.68 67.58 12.76 67.58 12.85V13.02V13.05C67.58 13.06 67.58 13.08 67.58 13.1C67.58 13.14 67.56 13.18 67.55 13.22C67.55 13.22 67.55 13.23 67.55 13.24C67.55 13.26 67.5299 13.28 67.5199 13.3C67.5199 13.3 67.52 13.3 67.51 13.31C67.51 13.31 67.48 13.34 67.47 13.35C67.47 13.35 67.46 13.36 67.44 13.37C67.44 13.37 67.4299 13.36 67.4199 13.35C67.5899 12.75 67.5899 12.07 67.2099 11.55C67.15 11.46 67.03 11.42 66.93 11.47C66.84 11.52 66.7899 11.66 66.8499 11.75C67.0299 12.01 67.11 12.29 67.11 12.58C66.79 11.77 66.1399 11.07 65.3399 10.48C65.3399 10.46 65.33 10.45 65.32 10.42C65.32 10.42 65.3199 10.41 65.3099 10.39C65.1799 10.09 65.0299 9.8 64.8799 9.51C64.5799 8.94 64.1999 8.39 63.6899 7.99C63.5699 7.89 63.3899 7.87 63.2599 7.99C63.1499 8.1 63.1299 8.31 63.2599 8.42C63.5999 8.7 63.87 9.03 64.11 9.39C63.81 9.16 63.52 8.94 63.22 8.72C62.58 8.26 61.9 7.71 61.13 7.51C60.75 7.41 60.58 8.01 60.9599 8.1C61.32 8.19 61.62 8.37 61.93 8.57C62.08 8.67 62.2199 8.77 62.3699 8.87C60.6899 8.21 59.1299 7.87 58.7299 7.81C57.7899 7.69 56.49 7.58 55.09 7.34C53.68 7.11 51.56 7.57 51.56 7.57L51.91 7.34C52.26 7.11 53.08 6.75 53.08 4.75C53.03 3.92 52.3799 2.51 51.5499 2.75C51.2699 2.83 50.82 2.74 50.34 2.57C50.51 2.22 50.6199 1.85 50.6399 1.46C50.6399 1.35 50.5399 1.26 50.4399 1.26C50.3199 1.26 50.25 1.36 50.24 1.46C50.22 1.81 50.1199 2.12 49.9599 2.43C49.8499 2.39 49.74 2.34 49.63 2.29C49.79 2.06 49.9099 1.81 49.9599 1.53C49.9899 1.35 50.02 1.16 50 0.979998C49.99 0.769998 49.92 0.549998 49.68 0.519998C49.57 0.519998 49.4799 0.619998 49.4799 0.719998C49.4799 0.799998 49.5299 0.859998 49.5999 0.899998V1.17C49.5999 1.29 49.57 1.41 49.54 1.54C49.48 1.75 49.38 1.94 49.25 2.11C49.2 2.09 49.1499 2.06 49.0999 2.04C49.1899 1.87 49.29 1.72 49.34 1.53C49.37 1.41 49.38 1.26 49.34 1.14C49.28 0.969998 49.16 0.849998 49.02 0.749998C48.82 0.619998 48.56 0.619998 48.36 0.749998C48.26 0.819998 48.17 0.909998 48.09 1.01C47.57 0.469998 46.5499 0.609998 46.5499 0.609998C46.0199 -0.680002 45.44 0.379998 45.2 0.609998C44.96 0.839998 44.8499 0.959998 44.1399 0.959998C43.4299 0.959998 41.79 1.31 41.2 1.43C40.61 1.55 39.55 2.02 39.2 3.2C38.85 4.37 36.99 5.39 37.36 7.89C37.73 10.38 40.49 12.02 40.49 12.02C40.49 12.02 40.0099 12.37 40.0099 13.3C40.0099 14.23 40.72 13.78 40.72 13.78C40.72 13.78 39.98 14.37 40.24 15.19C40.46 15.89 41.66 15.19 41.66 15.19C41.66 15.19 39.66 17.54 38.84 20.01C38.02 22.48 39.07 26.24 39.54 27.77C39.7 28.29 40.03 28.94 40.47 29.65C40.47 30.11 40.5399 30.55 40.6699 30.97V31.02C40.6899 31.09 40.73 31.16 40.75 31.23C40.78 31.32 40.8099 31.41 40.8499 31.49C40.8699 31.55 40.9 31.6 40.93 31.66C41.12 32.07 41.34 32.47 41.57 32.86C41.59 32.89 41.62 32.92 41.65 32.93C41.71 33.01 41.75 33.1 41.81 33.17C42.23 33.78 42.71 34.38 43.29 34.84C43.55 35.05 43.85 35.21 44.15 35.34C44.23 35.42 44.3099 35.5 44.3899 35.57C44.6999 35.85 45.0499 36.03 45.4199 36.11C45.3199 36.12 45.2299 36.2 45.2299 36.31C45.2299 36.41 45.33 36.52 45.43 36.51C45.86 36.48 46.28 36.33 46.63 36.08C46.63 36.08 46.65 36.07 46.66 36.06C46.07 36.83 45.43 37.36 45.43 38.69C45.43 38.95 45.91 38.83 45.82 38.58C45.88 37.34 46.7199 36.77 47.2099 36.04C47.2399 40.73 43.6399 48.23 43.6399 48.23C43.17 48.23 42.9399 48.58 42.9399 49.05C42.9399 49.52 42.94 49.64 42.47 50.11C42 50.58 41.65 52.11 41.65 52.11C38.24 55.52 37.2 61.52 37.2 61.52H67.2099C67.2099 61.52 64.12 57.52 64 57.17C63.8799 56.82 62.9399 55.29 62.9399 55.29C62.9399 55.29 62.7099 54.35 62.7099 54C62.7099 53.65 61.54 52.94 60.83 52C60.12 51.06 58.4799 50 58.4799 50V48.83C59.8899 40.25 62.12 38.36 62.36 38.36C62.6 38.36 64.1299 38.83 64.1299 38.83C66.2499 39.53 67.7699 39.77 68.9499 39.06C70.1199 38.36 69.54 36.71 69.54 36.47C69.54 36.23 70.1299 35.88 70.1299 35.88C70.8299 35.88 70.9499 35.41 70.9499 35.41C71.0699 34.47 70.25 34.12 70.25 34.12C70.25 34.12 70.84 34.24 71.19 33.53C71.54 32.82 70.8399 32.23 70.8399 32.23C70.6099 31.29 70.9599 31.41 70.9599 31.41L71.7799 31.29C71.7799 31.29 73.19 30.94 73.19 30C73.19 29.06 72.0199 27.88 72.0199 27.88L71.97 27.93ZM45.41 35.23C45.05 35.23 44.69 35.17 44.34 35.04C43.82 34.49 43.42 33.86 43.1399 33.17C43.4499 33.51 43.77 33.84 44.09 34.17C44.6 34.68 45.04 35.02 45.41 35.23ZM42.04 32.89C41.64 32.3 41.28 31.68 41.06 31C40.99 30.79 40.94 30.59 40.9 30.38C41.36 31.04 41.9 31.74 42.49 32.44C42.66 33.16 42.9499 33.84 43.3499 34.45C43.3499 34.45 43.33 34.44 43.32 34.43C42.82 33.99 42.41 33.45 42.04 32.9V32.89ZM46.16 35.55C46.3499 35.6 46.5099 35.61 46.6399 35.58C46.5899 35.63 46.54 35.68 46.49 35.72C46.45 35.72 46.4099 35.74 46.3699 35.75C45.8999 35.85 45.47 35.81 45.09 35.62C45.45 35.65 45.8099 35.62 46.16 35.54V35.55ZM48.2999 1.53C48.3299 1.47 48.36 1.42 48.3899 1.36C48.4 1.34 48.42 1.32 48.43 1.3C48.43 1.3 48.4899 1.23 48.5099 1.2C48.5299 1.19 48.5799 1.15 48.5099 1.2C48.5199 1.2 48.5399 1.18 48.5499 1.17C48.5599 1.17 48.57 1.16 48.58 1.15H48.57H48.5999H48.65C48.65 1.15 48.7299 1.18 48.66 1.15C48.66 1.15 48.6899 1.16 48.7099 1.18C48.7199 1.18 48.73 1.19 48.74 1.2C48.74 1.2 48.7799 1.23 48.7999 1.26C48.7999 1.26 48.8099 1.28 48.82 1.29V1.32V1.42C48.82 1.44 48.8099 1.47 48.7999 1.49C48.7999 1.49 48.8 1.51 48.79 1.52C48.79 1.52 48.79 1.52 48.79 1.53C48.79 1.53 48.75 1.61 48.7299 1.65C48.6899 1.72 48.65 1.79 48.61 1.86C48.42 1.76 48.2999 1.69 48.2999 1.69C48.2999 1.63 48.28 1.57 48.27 1.51H48.31L48.2999 1.53Z" fill="#FBBA00"/>
<g style="mix-blend-mode:multiply">
<path d="M29.3601 46.1C29.1901 46.19 29.0101 47.41 29.0101 47.41C28.3101 47.93 27.8701 48.98 27.8701 48.98C27.0801 49.94 27.1701 51.34 26.5501 53.44C25.9301 55.54 23.9301 61.57 23.9301 61.57H48.4701L48.2801 60.61C46.8801 50.38 41.6101 48.37 41.6101 48.37C41.1701 47.06 39.7701 45.31 39.7701 45.31C39.7701 45.31 40.0301 43.38 40.3801 43.12C40.7301 42.86 41.7801 42.24 41.7801 42.24C41.7801 42.24 43.7101 42.5 45.0201 41.81C46.3401 41.11 46.0801 39.62 46.0801 39.28C46.0801 38.94 46.1701 38.76 46.4301 38.32C46.6901 37.89 46.2401 37.36 46.2401 37.36H46.5201C46.5201 37.36 47.0401 37.1 46.8701 36.57C46.7001 36.04 46.8701 35.35 46.8701 35.35C47.9201 35.09 47.8401 34.3 47.8401 34.3C47.8401 33.42 46.3501 32.37 45.9101 31.42C45.4701 30.47 46.4301 29.15 46.1701 28.8C45.9101 28.45 45.9101 26.96 45.9101 26.96C46.4601 24.52 44.7201 22.25 42.9001 20.74C43.5901 20.98 44.2001 21.43 44.6801 21.99C44.8001 22.14 45.0201 21.92 44.8901 21.78C44.2301 21 43.3101 20.45 42.3001 20.28C42.2301 20.23 42.1601 20.18 42.1001 20.14C42.8301 20.08 43.5801 20.15 44.1601 20.62C44.3101 20.74 44.5301 20.53 44.3701 20.41C43.6001 19.8 42.6401 19.78 41.7101 19.89C41.0201 19.44 40.3901 19.13 39.9501 19C38.1601 18.44 32.9301 18.24 30.2101 19.46C29.2901 19.87 28.6401 20.35 28.1901 20.79C28.3801 20.28 28.7401 19.83 29.2001 19.53C29.3701 19.43 29.2101 19.16 29.0501 19.27C28.3401 19.72 27.8801 20.48 27.7401 21.28C27.7301 21.29 27.7101 21.31 27.7101 21.33C27.7101 21.26 27.7201 21.2 27.7401 21.13C27.8601 20.46 28.0801 19.8 28.6101 19.36C28.7601 19.24 28.5401 19.02 28.4001 19.15C27.8101 19.64 27.5601 20.39 27.4401 21.12C27.4001 21.39 27.3601 21.67 27.3401 21.94C27.3401 21.96 27.3201 21.98 27.3101 22C27.1701 21.46 27.1501 20.88 27.3001 20.33C27.3501 20.14 27.0601 20.06 27.0101 20.25C26.8201 20.97 26.8701 21.75 27.1301 22.44L25.8401 23.47C23.9101 25.04 24.1801 30.2 25.1401 33.26C26.1101 36.32 30.9301 38.94 31.1001 39.73C31.2701 40.52 31.1001 41.66 31.1001 41.66C31.1001 41.66 30.7501 41.83 30.0401 41.92C29.3301 42.01 29.0701 42.53 29.1601 42.88C29.2501 43.23 29.4201 44.45 29.4101 44.82C29.4001 45.19 29.1601 45.86 29.1601 45.86C29.1601 45.86 29.5101 46.03 29.3301 46.12L29.3601 46.1Z" fill="#E4003A"/>
</g>
<g style="mix-blend-mode:multiply">
<path d="M37.39 29.88C36.89 29.48 36.49 29.09 36.49 29.09C35.5 28.39 35 27.3 35.1 26.96C35.2 26.62 35.4 25.21 35.1 24.71C34.8 24.21 34.31 22.82 34.31 22.82C33.96 20.33 32.27 18.75 31.27 18.02C31.27 17.96 31.28 17.91 31.29 17.86C31.29 17.74 31.23 17.62 31.12 17.54C31.22 17.45 31.29 17.32 31.33 17.2C31.35 17.15 31.31 17.09 31.26 17.08H31.2V17.02C31.26 16.73 31.12 16.43 30.85 16.3C30.8 16.28 30.75 16.27 30.71 16.25C30.71 16.22 30.7 16.19 30.69 16.17C30.8 15.88 30.71 15.56 30.52 15.33C30.62 15.26 30.71 15.16 30.74 15.03C30.77 14.9 30.74 14.77 30.68 14.65C30.7 14.61 30.72 14.56 30.72 14.51C30.72 14.23 30.44 14.05 30.22 13.94C30.16 13.91 30.1 13.88 30.03 13.86C30 13.82 29.96 13.78 29.91 13.75C29.7 13.63 29.49 13.61 29.3 13.66C29.18 13.45 28.93 13.32 28.67 13.26C28.58 13.14 28.45 13.05 28.29 13C28.15 12.96 27.99 12.97 27.86 13.02C27.79 12.99 27.72 12.97 27.65 12.96C27.5 12.93 27.34 12.94 27.19 12.98C26.84 12.94 26.49 12.95 26.15 13C25.84 12.68 25.37 12.49 24.93 12.5C24.87 12.47 24.82 12.45 24.76 12.44C24.52 12.32 24.24 12.28 24.02 12.44C23.94 12.43 23.88 12.41 23.81 12.41C23.55 12.38 23.28 12.38 23.02 12.44C22.94 12.4 22.85 12.37 22.75 12.36C22.47 12.33 22.16 12.46 22 12.71C21.94 12.81 21.91 12.92 21.92 13.02C21.89 13.05 21.87 13.08 21.85 13.1C21.88 12.99 21.85 12.87 21.73 12.77C21.71 12.76 21.68 12.74 21.66 12.72C21.61 12.64 21.54 12.57 21.43 12.53C21.02 12.38 20.53 12.73 20.21 12.95C20.18 12.94 20.13 12.92 20.08 12.92C19.8 12.9 19.64 13.09 19.58 13.32H19.52C19.52 13.32 19.47 13.32 19.45 13.32C19.26 13.29 19.03 13.32 18.9 13.38C18.85 13.39 18.81 13.41 18.77 13.44C18.64 13.27 18.47 13.14 18.27 13.09C17.99 13.02 17.68 13.15 17.55 13.41C17.47 13.56 17.46 13.76 17.46 13.94C17.39 13.94 17.32 13.94 17.27 13.93C17.15 13.93 17.02 13.93 16.9 13.93C16.65 13.7 16.32 13.56 15.98 13.56C15.87 13.51 15.75 13.49 15.64 13.48C15.42 13.48 15.27 13.62 15.22 13.8C15.22 13.8 15.21 13.8 15.19 13.81C15.16 13.83 15.13 13.86 15.14 13.89C15.14 13.93 15.15 13.97 15.16 14.01C14.96 14.1 14.77 14.2 14.59 14.33C14.42 14.2 14.21 14.19 14.02 14.27C13.82 14.36 13.67 14.55 13.58 14.73C13.57 14.76 13.55 14.79 13.54 14.82C13.38 14.76 13.15 14.72 13 14.8C12.94 14.83 12.9 14.88 12.87 14.94C12.77 14.95 12.68 15 12.61 15.08C12.59 15.08 12.57 15.09 12.55 15.1C12.55 15.1 12.54 15.1 12.53 15.11C12.52 15.11 12.5 15.13 12.49 15.14C12.29 15.33 12.5 15.71 12.73 16.04C12.56 16.03 12.4 16.04 12.24 16.05C11.9 16.06 11.54 16.15 11.29 16.37C11.26 16.4 11.23 16.44 11.2 16.48C11.06 16.72 11.06 17 11.06 17.29C10.92 17.34 10.78 17.44 10.68 17.55C10.49 17.73 10.33 17.97 10.32 18.24C10.04 18.14 9.8 18.13 9.6 18.41C9.42 18.66 9.39 18.93 9.64 19.12C9.64 19.12 9.58 19.2 9.56 19.25C9.44 19.49 9.44 19.77 9.53 20C9.45 20.07 9.39 20.16 9.36 20.25C9.32 20.36 9.29 20.49 9.29 20.64C9.22 20.7 9.17 20.78 9.12 20.85C9.02 21.02 8.98 21.22 9 21.4C8.88 21.58 8.83 21.79 8.83 22.01C8.82 22.03 8.8 22.05 8.79 22.08C8.73 22.18 8.72 22.29 8.73 22.4C8.71 22.43 8.68 22.46 8.66 22.5C8.57 22.61 8.5 22.75 8.47 22.88C8.43 23.11 8.5 23.54 8.66 23.87C8.46 24.1 8.37 24.47 8.36 24.8C8.25 24.92 8.19 25.08 8.17 25.23C8.16 25.35 8.17 25.46 8.21 25.58C8.2 25.59 8.18 25.61 8.17 25.63C7.98 25.89 7.85 26.27 7.96 26.59C7.98 26.65 8.02 26.71 8.06 26.76C8.03 26.79 8 26.83 7.99 26.88C7.93 27.04 8 27.16 8.13 27.26C8.13 27.38 8.18 27.51 8.25 27.62C8.38 27.83 8.59 27.97 8.82 28.05C8.75 28.08 8.69 28.14 8.65 28.22C8.55 28.41 8.58 28.66 8.73 28.81C8.79 28.87 8.85 28.91 8.93 28.93C8.8 29.09 8.72 29.3 8.74 29.51C8.76 29.81 8.96 30.13 9.24 30.28C9.26 30.3 9.27 30.31 9.3 30.34C9.3 30.36 9.32 30.37 9.34 30.39C9.36 30.41 9.39 30.42 9.42 30.43C9.48 30.47 9.53 30.51 9.59 30.53C9.6 30.53 9.62 30.54 9.64 30.55C9.57 30.68 9.55 30.85 9.56 31C9.42 31.02 9.28 31.08 9.18 31.19C8.94 31.45 9.11 31.85 9.3 32.09C9.46 32.3 9.72 32.44 9.98 32.4H10.06C10.14 32.49 10.24 32.57 10.34 32.63C10.37 32.71 10.39 32.77 10.42 32.84C10.54 33.08 10.77 33.3 11.05 33.32C11.09 33.36 11.14 33.4 11.19 33.44C11.22 33.61 11.3 33.76 11.43 33.87C11.53 33.95 11.63 34 11.74 34.02C11.75 34.18 11.82 34.34 11.94 34.48C12.04 34.6 12.17 34.67 12.31 34.71C12.31 34.76 12.32 34.8 12.34 34.84C12.37 34.97 12.44 35.07 12.53 35.16C12.4 35.66 12.66 36.16 13.05 36.43C12.94 36.58 12.87 36.75 12.9 36.94C12.94 37.22 13.18 37.39 13.45 37.42C13.62 37.44 13.77 37.4 13.91 37.32C13.99 37.39 14.08 37.44 14.17 37.46C14.31 37.49 14.51 37.46 14.67 37.4C14.64 37.46 14.61 37.52 14.57 37.61C14.37 38.11 14.57 38.6 14.57 39.1C14.57 39.6 14.37 40.2 14.37 40.2C14.37 40.2 12.18 40.8 11.69 42.09C11.19 43.38 7.21 46.07 7.21 46.07C1.19 51.75 0 61.55 0 61.55H31.09L28.16 52.25C27.76 48.37 25.97 47.57 25.97 47.57L25.77 46.67C25.87 46.07 27.06 45.38 27.06 45.38C27.06 45.38 27.85 45.38 28.05 43.69C28.25 42 30.23 41.5 30.23 41.5C32.71 40.9 34.12 41.5 34.12 41.5C36.01 41.2 36.31 40.01 36.31 39.71C36.31 39.41 36.11 38.81 36.11 38.02C36.11 37.23 36.9 37.12 37.1 36.83C37.3 36.53 37.3 36.23 37.2 35.93C37.1 35.63 36.9 35.53 36.8 35.43C36.7 35.33 37.1 35.03 37.1 35.03C37.8 34.33 37.1 33.84 37.1 33.84C37.1 33.84 36.5 32.65 36.5 32.45C36.5 32.25 36.8 32.25 36.8 32.25C36.8 32.25 37.9 31.95 38.09 31.26C38.28 30.57 37.89 30.27 37.39 29.87V29.89V29.88Z" fill="#69A82F"/>
</g>
<path d="M9.41998 75.17C8.94998 75.37 8.43998 75.53 7.88998 75.65C7.33998 75.77 6.86998 75.82 6.46998 75.82C5.12998 75.82 4.06998 75.43 3.27998 74.64C2.48998 73.85 2.09998 72.56 2.09998 70.76C2.09998 67.4 3.66998 65.72 6.80998 65.72C7.24998 65.72 7.68998 65.77 8.11998 65.86C8.54998 65.95 8.90998 66.06 9.20998 66.19L9.01998 67.02C8.61998 66.91 8.26998 66.83 7.94998 66.77C7.63998 66.71 7.25998 66.69 6.82998 66.69C6.17998 66.69 5.62998 66.76 5.15998 66.9C4.68998 67.04 4.31998 67.23 4.02998 67.46C3.82998 67.73 3.63998 68.16 3.47998 68.75C3.31998 69.35 3.23998 70.01 3.23998 70.75C3.23998 72.14 3.49998 73.17 4.02998 73.84C4.55998 74.5 5.34998 74.84 6.40998 74.84C7.12998 74.84 7.78998 74.76 8.37998 74.6V71.57H6.27998V70.57H9.43998V75.17H9.41998Z" fill="black"/>
<path d="M14.6999 74.64C13.9399 73.85 13.5599 72.56 13.5599 70.76C13.5599 69.54 13.7499 68.56 14.1399 67.81C14.5299 67.06 15.0299 66.53 15.6599 66.2C16.2799 65.88 16.9699 65.72 17.7199 65.72C18.9799 65.72 19.9799 66.11 20.7399 66.9C21.4999 67.69 21.8799 68.98 21.8799 70.78C21.8799 72 21.6899 72.98 21.2999 73.73C20.9099 74.48 20.4099 75.01 19.7799 75.34C19.1599 75.66 18.4699 75.82 17.7199 75.82C16.4599 75.82 15.4599 75.43 14.6999 74.64ZM18.9099 74.66C19.3199 74.53 19.6399 74.35 19.8899 74.14C20.0999 73.88 20.2999 73.44 20.4699 72.82C20.6499 72.2 20.7299 71.53 20.7299 70.83C20.7299 69.48 20.4699 68.45 19.9599 67.74C19.4499 67.02 18.7199 66.67 17.7799 66.67C17.3499 66.67 16.9099 66.74 16.4899 66.88C16.0599 67.02 15.7199 67.2 15.4599 67.41C15.2599 67.66 15.0799 68.1 14.9299 68.73C14.7799 69.36 14.6999 70.03 14.6999 70.75C14.6999 72.11 14.9499 73.13 15.4499 73.82C15.9499 74.51 16.6799 74.86 17.6399 74.86C18.0799 74.86 18.5099 74.79 18.9099 74.66Z" fill="black"/>
<path d="M24.98 65.78H26.13L29.16 74.58L32.3 65.78H33.38L29.75 75.75H28.48L24.98 65.78Z" fill="black"/>
<path d="M58.75 75.75H51.33L47.94 68.51C47.7 67.99 47.38 67.64 46.98 67.46C46.58 67.28 46.04 67.19 45.38 67.19H43.85V75.75H37.36V50.08H47.09C50.25 50.08 52.67 50.82 54.35 52.29C56.03 53.76 56.86 55.89 56.86 58.67C56.86 60.31 56.53 61.69 55.86 62.82C55.19 63.95 54.29 64.86 53.15 65.55C53.51 65.93 53.85 66.44 54.18 67.08L58.74 75.74L58.75 75.75ZM49.12 56.16C48.43 55.7 47.28 55.46 45.66 55.46H43.84V61.66H45.94C47.77 61.66 48.98 61.48 49.58 61.13C49.96 60.56 50.15 59.7 50.15 58.56C50.15 57.42 49.81 56.62 49.12 56.15V56.16Z" fill="black"/>
<path d="M61.3099 74.36L62.5199 69.19C63.8999 69.57 65.0699 69.84 66.0499 69.99C67.0199 70.14 68.2699 70.22 69.7899 70.22C70.7599 70.22 71.4799 70.19 71.9299 70.13C72.3799 70.07 72.7599 69.96 73.0699 69.79C73.3799 69.34 73.5299 68.83 73.5299 68.26C73.5299 67.81 73.4099 67.44 73.1699 67.15C72.9299 66.86 72.4599 66.59 71.7399 66.33C71.0299 66.07 69.9499 65.8 68.4999 65.51C66.2199 65.06 64.5299 64.2 63.4399 62.94C62.3499 61.68 61.7999 60 61.7999 57.91C61.7999 55.27 62.7299 53.26 64.5799 51.88C66.4299 50.5 69.0999 49.81 72.5699 49.81C73.7599 49.81 74.9999 49.95 76.2999 50.22C77.5999 50.49 78.7099 50.81 79.6299 51.16L78.4199 56.47C76.4499 55.88 74.6399 55.58 72.9999 55.58C70.9299 55.58 69.5399 55.79 68.8299 56.22C68.5899 56.6 68.4699 57.03 68.4699 57.5C68.4699 58.12 68.7099 58.56 69.1999 58.82C69.6899 59.08 70.6399 59.39 72.0699 59.75C72.2399 59.77 72.4899 59.83 72.8199 59.93C74.6999 60.38 76.1799 60.94 77.2799 61.61C78.3699 62.28 79.1699 63.11 79.6699 64.12C80.1699 65.13 80.4199 66.4 80.4199 67.92C80.4199 70.63 79.5599 72.65 77.8399 73.98C76.1199 75.31 73.5299 75.98 70.0899 75.98C66.9999 75.98 64.0799 75.43 61.3199 74.34L61.3099 74.36Z" fill="black"/>
</svg>
