<svg width="18" height="18" viewBox="0 0 18 18" fill="none" xmlns="http://www.w3.org/2000/svg">
<path d="M6.77734 0.75C8.45566 0.75 9.88686 1.33453 11.0547 2.50098C12.2226 3.66761 12.8073 5.09845 12.8057 6.77734L12.8008 7.03027C12.7772 7.61668 12.67 8.1762 12.4795 8.70703C12.2905 9.23351 12.0404 9.70879 11.7305 10.1328L17.3535 15.7559L15.7559 17.3535L10.1328 11.7305C9.70879 12.0404 9.23351 12.2905 8.70703 12.4795C8.10052 12.6972 7.45619 12.8057 6.77734 12.8057C5.09794 12.8056 3.66707 12.2204 2.50098 11.0537C1.33522 9.88715 0.750721 8.45689 0.75 6.77832C0.749384 5.09922 1.33457 3.66774 2.50195 2.50098C3.66908 1.33468 5.09929 0.750101 6.77734 0.75ZM6.77734 3.02734C5.73091 3.02627 4.85073 3.38972 4.12207 4.12109C3.3928 4.85315 3.02902 5.73435 3.02734 6.77832C3.0257 7.82159 3.38954 8.70204 4.12207 9.43457C4.85461 10.1671 5.73474 10.5296 6.77734 10.5273C7.82291 10.5273 8.70392 10.1646 9.43457 9.43457C10.165 8.70467 10.5278 7.82426 10.5273 6.77832C10.5268 5.73204 10.1639 4.85147 9.43457 4.12207C8.70515 3.39265 7.82435 3.02846 6.77734 3.02734Z" fill="#F0EAD7" stroke="#F0EAD7" stroke-width="0.5"/>
</svg>
