<svg width="502" height="123" viewBox="0 0 502 123" fill="none" xmlns="http://www.w3.org/2000/svg">
<path d="M391.875 58.2471L488.751 58.3105L488.749 60.3096L488.875 60.3105V115.482L498.188 106.168C498.97 105.387 500.237 105.387 501.018 106.168C501.798 106.949 501.798 108.216 501.018 108.997L488.289 121.725C487.508 122.506 486.242 122.505 485.461 121.724L472.732 108.996C471.952 108.215 471.951 106.948 472.732 106.167C473.513 105.386 474.781 105.386 475.562 106.167L484.875 115.481V62.3076L252.875 62.1562V115.482L262.188 106.168C262.97 105.387 264.237 105.387 265.018 106.168C265.798 106.949 265.798 108.216 265.018 108.997L252.289 121.725C251.508 122.506 250.242 122.505 249.461 121.724L236.732 108.996C235.952 108.215 235.951 106.948 236.732 106.167C237.513 105.386 238.781 105.386 239.562 106.167L248.875 115.481V62.1533L16.875 62.002V115.482L26.1885 106.168C26.9695 105.387 28.2366 105.387 29.0176 106.168C29.7982 106.949 29.7984 108.216 29.0176 108.997L16.2891 121.725C15.508 122.506 14.242 122.505 13.4609 121.724L0.732422 108.996C-0.0484404 108.215 -0.0485648 106.948 0.732422 106.167C1.51344 105.386 2.7806 105.386 3.56152 106.167L12.875 115.481V60.3096H12.999L13.001 58L387.875 58.2441V0H391.875V58.2471Z" fill="#00B033"/>
</svg>
